<?xml version="1.0" encoding="UTF-8" standalone="no"?>
<!-- Created with Inkscape (http://www.inkscape.org/) -->

<svg
   xmlns:dc="http://purl.org/dc/elements/1.1/"
   xmlns:cc="http://creativecommons.org/ns#"
   xmlns:rdf="http://www.w3.org/1999/02/22-rdf-syntax-ns#"
   xmlns:svg="http://www.w3.org/2000/svg"
   xmlns="http://www.w3.org/2000/svg"
   xmlns:sodipodi="http://sodipodi.sourceforge.net/DTD/sodipodi-0.dtd"
   xmlns:inkscape="http://www.inkscape.org/namespaces/inkscape"
   id="svg3724"
   version="1.1"
   inkscape:version="0.47 r22583"
   width="35"
   height="35"
   sodipodi:docname="shopping_cart.svg"
   inkscape:export-filename="/home/tomas/sites/harmonydesigns/images/icons/shopping_cart.png"
   inkscape:export-xdpi="90"
   inkscape:export-ydpi="90">
  <metadata
     id="metadata3730">
    <rdf:RDF>
      <cc:Work
         rdf:about="">
        <dc:format>image/svg+xml</dc:format>
        <dc:type
           rdf:resource="http://purl.org/dc/dcmitype/StillImage" />
        <dc:title></dc:title>
      </cc:Work>
    </rdf:RDF>
  </metadata>
  <defs
     id="defs3728">
    <inkscape:perspective
       sodipodi:type="inkscape:persp3d"
       inkscape:vp_x="0 : 0.5 : 1"
       inkscape:vp_y="0 : 1000 : 0"
       inkscape:vp_z="1 : 0.5 : 1"
       inkscape:persp3d-origin="0.5 : 0.33333333 : 1"
       id="perspective3732" />
  </defs>
  <sodipodi:namedview
     pagecolor="#ffffff"
     bordercolor="#666666"
     borderopacity="1"
     objecttolerance="10"
     gridtolerance="10"
     guidetolerance="10"
     inkscape:pageopacity="0"
     inkscape:pageshadow="2"
     inkscape:window-width="1440"
     inkscape:window-height="827"
     id="namedview3726"
     showgrid="false"
     inkscape:zoom="8"
     inkscape:cx="32.887222"
     inkscape:cy="9.6965891"
     inkscape:window-x="0"
     inkscape:window-y="25"
     inkscape:window-maximized="1"
     inkscape:current-layer="svg3724" />
  <rect
     style="fill:#ffffee;fill-opacity:1;stroke:none"
     id="rect4250"
     width="35"
     height="35"
     x="0"
     y="0" />
  <path
     style="fill:#777777;fill-opacity:1"
     d="m 28.353525,34.738132 c -1.335136,-0.59038 -1.80648,-2.095227 -1.112629,-3.552278 0.381824,-0.801816 0.408478,-1.004956 0.180546,-1.375984 -0.260365,-0.423815 -0.422324,-0.435288 -6.143462,-0.435288 -5.714345,0 -5.888956,0.01232 -6.345194,0.448042 -0.446129,0.426062 -0.453255,0.479283 -0.145238,1.084797 0.40703,0.80015 0.26998,2.303212 -0.26576,2.914641 -1.012955,1.156051 -2.733029,1.219177 -3.795322,0.139286 -0.7636558,-0.776314 -0.9574011,-1.759157 -0.544709,-2.76323 0.316814,-0.770806 1.377876,-1.611296 2.036001,-1.612752 0.538371,-0.0014 0.849759,-0.732123 0.454102,-1.065932 -0.175529,-0.148092 -0.440019,-0.512386 -0.587755,-0.80955 C 11.936368,27.412727 10.910496,21.877628 9.804389,15.409669 8.6982812,8.9417154 7.7073199,3.2996289 7.6022534,2.8717048 7.2643886,1.4956236 7.1263192,1.4447616 3.7285052,1.4447616 1.4005286,1.4447616 0.58974376,1.3735296 0.28311723,1.1420605 -0.03768454,0.89989546 -0.07215789,0.76341643 0.11073393,0.45956737 0.30559886,0.13583131 0.686729,0.0701853 2.6929311,0.01480829 c 1.294474,-0.03570001 2.8467351,-0.0049 3.4494692,0.06902001 1.4283643,0.17467103 2.3765864,0.9831782 2.7041787,2.3057164 l 0.2341164,0.9451682 12.5812496,0 c 6.919688,0 12.728291,0.0574 12.908007,0.1274701 0.184412,0.071932 0.326253,0.369257 0.325598,0.6824931 -0.0024,1.1385922 -3.08837,16.4845019 -3.348724,16.6524389 -0.145855,0.09408 -4.564546,0.172501 -9.819316,0.174272 -7.644445,0.0028 -9.554128,0.05719 -9.554128,0.273154 0,0.262157 0.734271,4.610189 0.938076,5.554867 0.05575,0.258412 0.351251,0.636412 0.656672,0.839993 0.505121,0.3367 1.456352,0.379645 10.524965,0.475153 9.209696,0.09701 9.997757,0.13356 10.338281,0.479521 C 34.928786,28.896279 35,29.322257 35,30.799096 l 0,1.830467 -0.568084,0.06643 -0.568083,0.06643 0,-1.441938 c 0,-0.841513 -0.103222,-1.546875 -0.247891,-1.693938 -0.281494,-0.28616 -3.589002,-0.356713 -3.757145,-0.08015 -0.05746,0.09451 0.21095,0.287805 0.596481,0.429527 1.406609,0.517062 2.035233,2.704046 1.117981,3.889461 -0.857909,1.108731 -1.991255,1.415919 -3.219734,0.872705 z m 2.360028,-1.28819 c 0.636263,-0.723884 0.604838,-1.653492 -0.07763,-2.296463 -0.298335,-0.281072 -0.623692,-0.459978 -0.723015,-0.39758 -0.23694,0.148862 -0.230702,0.861085 0.01162,1.321286 0.105686,0.200753 0.117796,0.487341 0.02689,0.636854 -0.285414,0.469462 -0.87914,0.155295 -1.122006,-0.593699 -0.300714,-0.927395 -0.688709,-1.046066 -0.969086,-0.296394 -0.173182,0.46305 -0.150802,0.745228 0.101808,1.283752 0.562345,1.198786 1.857044,1.359828 2.751461,0.342244 z M 13.774344,33.230877 c 0.468,-0.52332 0.602851,-1.419951 0.289154,-1.922614 -0.121933,-0.195384 -0.332906,-0.03136 -0.753898,0.586229 -0.929099,1.362901 -1.524009,0.867 -1.070595,-0.892423 0.107901,-0.418699 0.07244,-0.577494 -0.128965,-0.577494 -0.320115,0 -1.05564,0.775076 -1.2399,1.306572 -0.222171,0.640857 0.280576,1.657489 0.969488,1.960463 0.789306,0.347124 1.326706,0.219149 1.934716,-0.460733 z m 0.04937,-14.198728 c -0.0013,-0.375375 -0.05989,-1.036868 -0.130316,-1.469994 l -0.128044,-0.787493 -1.109138,0 c -0.610025,0 -1.109138,0.04263 -1.109138,0.09465 0,0.158011 0.434625,2.301874 0.523615,2.582826 0.05034,0.158942 0.452422,0.262493 1.01922,0.262493 0.918833,0 0.936032,-0.0126 0.933801,-0.682493 z m 3.51406,-0.455322 c 0,-1.705859 -0.07381,-1.802165 -1.381257,-1.802165 -1.12187,0 -1.129651,0.0042 -1.021835,0.5775 0.05975,0.317619 0.168271,0.979119 0.241146,1.469987 l 0.13251,0.892493 1.01472,0 1.014722,0 0,-1.137815 z m 3.469582,-0.384671 0.06108,-1.417494 -1.145604,0 -1.145606,0 0,1.137816 c 0,1.697493 0.09405,1.83386 1.213847,1.760094 l 0.955199,-0.06293 0.06108,-1.417486 z m 3.421403,0.734993 c 0.07042,-0.433125 0.129066,-1.094618 0.130312,-1.469994 l 0.0022,-0.682493 -1.136167,0 -1.136166,0 0,1.329994 c 0,0.731493 0.06198,1.392993 0.137718,1.469986 0.07574,0.077 0.528377,0.14 1.005849,0.14 0.842698,0 0.871887,-0.0231 0.996177,-0.787493 z m 3.54976,0.563234 c 0.07498,-0.12334 0.186799,-0.789957 0.248473,-1.481368 l 0.11214,-1.25711 -1.217518,0.06391 -1.217516,0.06391 -0.06108,1.417494 -0.06108,1.417486 1.030125,0 c 0.56657,0 1.09148,-0.100912 1.166467,-0.224259 z m 3.121458,-0.930734 c 0.396452,-1.743834 0.38382,-1.784987 -0.547932,-1.784987 -0.516758,0 -0.830915,0.09834 -0.838617,0.2625 -0.0069,0.144375 -0.08952,0.734994 -0.183869,1.312494 -0.09436,0.577493 -0.126574,1.126188 -0.07158,1.219323 0.05498,0.09313 0.393218,0.140385 0.751631,0.105 0.597932,-0.05901 0.671346,-0.150913 0.890375,-1.11433 z m -17.58905,-4.042473 c -0.258656,-2.027986 -0.194775,-1.942488 -1.451345,-1.942488 -1.286844,0 -1.299539,0.02625 -0.908537,1.879656 l 0.223693,1.060325 1.131706,0 1.131706,0 -0.127222,-0.997493 z m 3.820271,0.501809 c 0,-0.272629 -0.05912,-0.934124 -0.131362,-1.469995 l -0.131362,-0.974302 -1.240149,0 -1.240149,0 0.13027,1.102493 c 0.07165,0.606375 0.131068,1.26787 0.132062,1.469995 0.0015,0.308959 0.199218,0.367493 1.241249,0.367493 1.164824,0 1.239455,-0.02982 1.239455,-0.495684 z m 3.718364,-0.974304 0,-1.469993 -1.368564,0 -1.368565,0 0.129108,0.65625 c 0.07101,0.360934 0.129108,1.022427 0.129108,1.469988 l 0,0.813743 1.239455,0 1.239455,0 0,-1.469988 z m 3.720637,0.787495 c 0.0013,-0.375375 0.05989,-1.03687 0.130312,-1.469995 l 0.128044,-0.787493 -1.369771,0 -1.369771,0 0,1.469993 0,1.469988 1.239455,0 1.239453,0 0.0022,-0.682493 z m 3.790514,0.315 c 0.05624,-0.202125 0.164192,-0.86362 0.23988,-1.469995 l 0.13762,-1.102493 -1.362127,0 c -1.29374,0 -1.362127,0.02492 -1.362127,0.495691 0,0.272622 -0.05911,0.934122 -0.131362,1.469988 l -0.131362,0.974302 1.253613,0 c 1.017242,0 1.272896,-0.0693 1.355879,-0.367493 z m 3.362442,-0.892495 c 0.390555,-1.708735 0.402918,-1.679993 -0.722609,-1.679993 l -1.004105,0 -0.13027,1.102493 c -0.225207,1.906025 -0.240005,1.869576 0.729565,1.797063 l 0.863425,-0.06461 0.26399,-1.154988 z M 12.686598,9.7922086 c -0.08089,-0.7218682 -0.188464,-1.3833683 -0.23905,-1.4699933 -0.05058,-0.086618 -0.655862,-0.157493 -1.345059,-0.157493 l -1.2530847,0 0.134603,0.6824931 c 0.074031,0.3753751 0.1904917,1.0368682 0.2587997,1.4699866 l 0.124197,0.7875 1.233335,0 1.233335,0 -0.147076,-1.3124934 z m 4.161651,0.8399934 C 16.779729,10.372327 16.722417,9.7108336 16.720863,9.1622155 l -0.0028,-0.9974932 -1.466314,0 -1.466313,0 0.147077,1.3124862 c 0.08089,0.7218755 0.188464,1.3833685 0.23905,1.4699935 0.05058,0.08663 0.701563,0.1575 1.446618,0.1575 1.304006,0 1.349987,-0.01764 1.230083,-0.4725 z m 4.001313,-0.9974934 0,-1.4699863 -1.446031,0 -1.44603,0 0.0022,0.6824931 c 0.0013,0.3753751 0.05989,1.0368682 0.130312,1.4699866 l 0.128044,0.7875 1.315714,0 1.315713,0 0,-1.4699934 z m 4.01758,1.2074934 c 0.04382,-0.144375 0.127148,-0.805868 0.185168,-1.4699935 l 0.10549,-1.2074862 -1.534391,0 -1.534393,0 0,1.4699863 0,1.4699934 1.349224,0 c 0.899171,0 1.375803,-0.08757 1.428902,-0.2625 z m 4.140781,-0.734993 c 0.06997,-0.5486255 0.1704,-1.2101186 0.22317,-1.4699936 0.09213,-0.4537401 0.03941,-0.4724931 -1.328199,-0.4724931 l -1.424143,0 -0.129108,0.6562431 c -0.07101,0.3609341 -0.129108,1.0224272 -0.129108,1.4699866 l 0,0.81375 1.330085,0 1.330084,0 0.127218,-0.997493 z m 3.481271,0.209993 c 0.06831,-0.4331184 0.184768,-1.0946115 0.258801,-1.4699866 l 0.134596,-0.6824931 -1.161987,0 c -0.963194,0 -1.164569,0.06286 -1.17707,0.367493 -0.0083,0.2021251 -0.08459,0.8636182 -0.16954,1.4699937 l -0.15446,1.102493 1.072729,0 1.072729,0 0.124194,-0.7875 z M 12.133056,5.9072358 12.070086,4.9097412 10.65712,4.8472312 9.2441541,4.7847212 9.3814437,5.4772467 C 9.6725653,6.945728 9.6272886,6.904764 10.959158,6.904764 l 1.236853,0 -0.06297,-0.9974932 z m 4.378416,-0.0525 0,-1.0499946 -1.549319,0 c -1.702185,0 -1.703906,0.0014 -1.420207,1.4437377 l 0.129109,0.6562501 1.420208,0 1.420209,0 0,-1.0499932 z m 4.33809,0 0,-1.0499946 -1.549318,0 -1.549319,0 0,0.9099946 c 0,0.5004931 0.06196,0.9729932 0.137718,1.0499932 0.07574,0.077 0.772937,0.14 1.549317,0.14 l 1.411602,0 0,-1.0499932 z m 4.415557,0.3937431 C 25.550723,4.7967892 25.559113,4.8047412 23.741622,4.8047412 l -1.652606,0 0,1.0499946 0,1.0499932 1.523496,0 1.523496,0 0.129108,-0.6562501 z m 4.263443,0.07875 c 0.0017,-0.317618 0.05888,-0.7901181 0.127386,-1.0499946 0.121198,-0.4597181 0.08203,-0.4724931 -1.448851,-0.4724931 l -1.573411,0 0,1.0499946 0,1.0499932 1.44603,0 c 1.439087,0 1.446045,-0.0028 1.448851,-0.5775001 z m 3.576235,0.4200001 c 0.0504,-0.086632 0.157024,-0.5591251 0.236923,-1.0499932 l 0.145277,-0.8924946 -1.230584,0 -1.230584,0 -0.128044,0.7874946 c -0.21486,1.3214322 -0.22161,1.3124932 0.991383,1.3124932 0.618186,0 1.165217,-0.070882 1.215626,-0.1575 z"
     id="path3736" />
  <rect
     style="fill:#ffffee;fill-opacity:1;stroke:none"
     id="rect4273"
     width="18"
     height="19"
     x="12.375"
     y="-0.75"
     inkscape:export-xdpi="90"
     inkscape:export-ydpi="90" />
</svg>
