<?xml version="1.0" standalone="no"?> <!DOCTYPE svg PUBLIC "-//W3C//DTD SVG 1.0//EN" "http://www.w3.org/TR/2001/REC-SVG-20010904/DTD/svg10.dtd" > <svg xmlns="http://www.w3.org/2000/svg" width="100%" height="100%">
<defs >
<font id="baskerville" horiz-adv-x="1193" ><font-face
    font-family="Baskerville"
    units-per-em="2048"
    panose-1="2 2 5 2 7 4 1 2 3 3"
    ascent="1839"
    descent="-504"
    alphabetic="0" />
<missing-glyph horiz-adv-x="748" d="M68 0V1365H612V0H68ZM136 68H544V1297H136V68Z" />
<glyph unicode=" " glyph-name="space" horiz-adv-x="512" />
<glyph unicode="!" glyph-name="exclam" horiz-adv-x="512" d="M284 386H241L182 1095Q174 1194 174 1218Q174 1277 200 1310T262 1343Q296 1343 323 1311T351 1217Q351 1182 343 1095L284 386ZM154 75Q154 119 185 150T261 182Q306 182 337 151T369 75Q369 30
337 -1T261 -33Q216 -33 185 -1T154 75Z" />
<glyph unicode="&quot;" glyph-name="quotedbl" horiz-adv-x="832" d="M210 759L155 1055Q133 1177 133 1220Q133 1343 231 1343Q272 1343 302 1315T333 1231Q333 1194 307 1053L253 759H210ZM576 759L522 1050Q498 1178 498 1221Q498 1343 601 1343Q644 1343
672 1314T700 1233Q700 1150 681 1051L624 759H576Z" />
<glyph unicode="#" glyph-name="numbersign" horiz-adv-x="1365" d="M92 960H423L510 1371H613L526 960H965L1051 1371H1155L1068 960H1274V856H1048L967 466H1274V362H946L861 -47H756L843 362H400L317 -47H212L298 362H92V466H320L401 856H92V960ZM504 856L422
468H864L945 856H504Z" />
<glyph unicode="$" glyph-name="dollar" horiz-adv-x="1003" d="M348 -19Q241 7 168 73Q94 141 94 198Q94 230 111 249T152 268Q202 268 218 195Q247 75 348 33V678Q107 786 107 1007Q107 1117 172 1200Q237 1281 348 1316V1385H391V1327Q440 1336 495 1336Q538
1336 589 1327V1385H632V1316Q748 1283 813 1209Q879 1135 879 1073Q879 1041 861 1023T822 1004Q792 1004 776 1025Q759 1048 746 1116Q725 1227 632 1264V712Q909 598 909 350Q909 234 840 134Q772 35 632 -9V-210H589V-19Q524 -33 467 -33Q428 -33 391 -27V-210H348V-19ZM391
813L589 729V1283Q538 1296 483 1296Q430 1296 391 1283V813ZM348 1274Q198 1203 198 1048Q198 909 348 834V1274ZM391 659V20Q430 10 478 10Q538 10 589 26V572L391 659ZM632 46Q808 123 808 310Q808 476 632 553V46Z" />
<glyph unicode="%" glyph-name="percent" horiz-adv-x="1792" d="M626 1025Q626 870 548 770Q472 670 355 670Q234 670 158 773Q83 876 83 1025Q83 1175 159 1278Q235 1381 355 1381Q472 1381 549 1280Q626 1179 626 1025ZM496 1025Q496 1344 355 1344Q213 1344
213 1025Q213 706 355 706Q496 706 496 1025ZM579 0H518L1214 1310H1275L579 0ZM1706 324Q1706 173 1630 70Q1554 -33 1435 -33Q1315 -33 1238 71Q1163 174 1163 324Q1163 474 1239 577Q1316 681 1435 681Q1551 681 1628 580Q1706 479 1706 324ZM1576 325Q1576
644 1435 644Q1293 644 1293 325Q1293 6 1435 6Q1576 6 1576 325Z" />
<glyph unicode="&amp;" glyph-name="ampersand" horiz-adv-x="1429" d="M882 819H1310V773Q1230 751 1168 695Q1109 641 1044 484Q990 355 945 296Q1052 142 1113 102Q1175 61 1243 61Q1337 61 1388 150H1434Q1413 68 1344 17Q1276 -33 1186 -33Q991 -33 843 163Q668
-33 471 -33Q400 -34 331 -7T208 69T121 187T90 338Q90 463 158 549Q226 634 421 765Q304 928 304 1060Q304 1163 384 1245Q463 1327 585 1327Q694 1327 780 1266Q867 1204 867 1106Q867 952 579 807Q669 686 752 570T915 341Q972 420 1005 506Q1038 591 1038 640Q1038
755 882 773V819ZM551 845Q751 962 751 1098Q751 1138 740 1171T707 1229T655 1266T589 1279Q516 1279 473 1231Q430 1184 430 1112Q430 1014 551 845ZM451 724Q347 659 290 574Q233 488 233 409Q233 285 332 176Q431 67 556 67Q694 67 813 204Q707 365 617 494T451
724Z" />
<glyph unicode="&apos;" glyph-name="quotesingle" horiz-adv-x="363" d="M158 758L104 1054Q81 1181 81 1213Q81 1343 178 1343Q224 1343 253 1313T282 1232Q282 1215 276 1170T256 1053L202 758H158Z" />
<glyph unicode="(" glyph-name="parenleft" horiz-adv-x="491" d="M501 -489H432Q98 -74 98 460Q98 965 421 1369H490Q331 1194 246 956T160 467Q160 156 259 -94T501 -489Z" />
<glyph unicode=")" glyph-name="parenright" horiz-adv-x="491" d="M-11 -489Q130 -345 229 -95T329 467Q329 706 248 945T-1 1369H69Q392 965 392 460Q392 -74 58 -489H-11Z" />
<glyph unicode="*" glyph-name="asterisk" horiz-adv-x="853" d="M409 964Q396 1056 357 1174Q338 1230 338 1261Q338 1311 363 1337T417 1364Q449 1364 477 1338T505 1262Q505 1232 476 1150Q445 1064 438 964Q501 1007 571 1089Q661 1194 723 1194Q755 1194
778 1174T801 1118Q801 1068 764 1042T645 1001Q541 981 454 939Q505 912 603 894Q728 871 764 838T801 762Q801 734 779 713T724 691Q658 691 571 788Q487 881 438 914Q446 809 486 707Q507 653 507 624Q507 579 483 550T424 521Q393 521 367 548T340 623Q340
651 361 709Q400 821 409 914Q336 868 257 768Q195 690 136 690Q101 690 77 710T52 766Q52 859 215 885Q348 907 396 939Q305 984 212 1000Q55 1028 55 1116Q55 1148 79 1170T135 1192Q194 1192 269 1105Q300 1069 327 1043L409 964Z" />
<glyph unicode="+" glyph-name="plus" horiz-adv-x="1365" d="M142 707H627V1194H735V707H1224V599H735V116H627V599H142V707Z" />
<glyph unicode="," glyph-name="comma" horiz-adv-x="512" d="M111 -390V-340Q217 -309 276 -232T335 -76Q335 -10 293 -10Q285 -10 267 -15Q252 -20 239 -20Q194 -20 164 6T134 76Q134 122 163 152T238 182Q309 182 353 117T398 -37Q398 -164 321 -260T111 -390Z" />
<glyph unicode="-" glyph-name="hyphen" horiz-adv-x="640" d="M71 489H562V338H71V489Z" />
<glyph unicode="." glyph-name="period" horiz-adv-x="512" d="M147 75Q147 119 178 150T254 182Q299 182 330 151T362 75Q362 30 330 -1T254 -33Q209 -33 178 -1T147 75Z" />
<glyph unicode="/" glyph-name="slash" horiz-adv-x="1067" d="M817 1343H938L256 -33H135L817 1343Z" />
<glyph unicode="0" glyph-name="zero" horiz-adv-x="1024" d="M86 655Q86 968 204 1155T515 1343Q707 1343 825 1155T944 655Q944 346 826 157T515 -33Q323 -33 205 155T86 655ZM252 655Q252 240 321 128T515 15Q661 15 719 149T777 655Q777 1071 708 1183T515
1295Q392 1295 322 1184T252 655Z" />
<glyph unicode="1" glyph-name="one" horiz-adv-x="1024" d="M549 1343H593V281Q593 150 596 116T625 64T714 46H753V0H303V46H336Q408 46 429 66T454 115T458 281V993Q458 1128 455 1156T430 1206T336 1228H293V1274Q466 1277 549 1343Z" />
<glyph unicode="2" glyph-name="two" horiz-adv-x="1024" d="M117 0V62Q231 151 405 343T657 676T734 959Q734 1130 656 1210T462 1291Q348 1291 286 1217T223 1059Q223 963 304 907Q334 886 334 875Q334 857 300 826T244 795Q214 795 172 855T129 1011Q129 1164
248 1253T509 1343Q659 1343 779 1250T900 974Q900 859 846 756T584 440T248 120H884L827 -104H780Q780 -86 786 -68Q789 -58 789 -41Q789 -11 776 -6T706 0H117Z" />
<glyph unicode="3" glyph-name="three" horiz-adv-x="1024" d="M509 728Q540 737 571 737Q718 737 802 637T887 384Q887 201 762 84T440 -33Q308 -33 213 27T118 156Q118 185 136 205T183 226Q235 226 257 155Q285 64 337 38Q388 11 438 11Q564 11 642 103T721
388Q721 543 663 619T524 695Q455 695 372 611Q358 596 343 596Q313 596 313 628Q313 642 328 657T416 722Q574 829 625 900Q676 971 676 1079Q676 1182 623 1238T482 1295Q392 1295 323 1238T253 1091Q253 1020 314 958Q321 951 321 946Q321 933 288 918T240 903Q209
903 182 950T155 1052Q155 1163 251 1253T508 1343Q673 1343 757 1268T842 1099Q842 1017 785 947T590 784L509 728Z" />
<glyph unicode="4" glyph-name="four" horiz-adv-x="1024" d="M559 451H67V511L638 1343H702V511H794Q879 511 895 521T939 606H983L960 451H702V281Q702 136 707 106T740 61T840 46V0H403V46H438Q498 46 523 62T554 109T559 281V451ZM559 511V1146L123 511H559Z" />
<glyph unicode="5" glyph-name="five" horiz-adv-x="1024" d="M269 688H217L247 1310H766Q723 1209 704 1193T636 1177H285L269 763Q370 892 517 892Q673 892 783 767T894 457Q894 244 770 106T421 -33Q265 -33 178 39T91 171Q91 197 108 216T156 235Q189 235
206 216T246 135Q291 11 425 11Q553 11 640 114T728 449Q728 658 656 746T486 834Q348 834 269 688Z" />
<glyph unicode="6" glyph-name="six" horiz-adv-x="1024" d="M271 678Q333 752 401 789T545 826Q707 826 825 704T943 398Q943 225 829 96T538 -33Q388 -33 285 62T141 299T99 596Q99 914 238 1128T612 1343Q722 1343 806 1296T890 1188Q890 1132 833 1132Q784
1132 755 1187Q725 1244 690 1269Q655 1293 585 1293Q427 1293 348 1153T269 732Q269 707 271 678ZM265 412Q265 315 292 220T384 69T527 14Q652 14 714 114T776 413Q776 539 753 609T667 727T527 774Q423 774 344 696T265 412Z" />
<glyph unicode="7" glyph-name="seven" horiz-adv-x="1024" d="M154 1068L238 1343H273Q275 1323 289 1317T368 1310H886L527 216Q468 36 438 2T375 -33Q315 -33 315 29Q315 66 371 186Q386 217 396 242L799 1178H372Q286 1178 269 1175T237 1153T199 1068H154Z" />
<glyph unicode="8" glyph-name="eight" horiz-adv-x="1024" d="M598 682Q730 671 831 577T932 333Q932 161 809 64T510 -33Q330 -33 210 70T90 329Q90 463 176 558T414 682Q291 713 213 802T134 1011Q134 1158 241 1250T510 1343Q660 1343 775 1253T891 1011Q891
891 818 804T598 682ZM291 1031Q291 868 343 787T501 705Q616 705 673 782T730 1014Q730 1154 671 1227T506 1300Q413 1300 352 1234T291 1031ZM256 342Q256 229 277 164T357 55T505 12Q617 12 691 76T765 330Q765 521 691 589T501 657Q378 657 317 573T256 342Z"
/>
<glyph unicode="9" glyph-name="nine" horiz-adv-x="1024" d="M759 632Q698 558 629 521T484 484Q322 484 205 606T87 912Q87 1086 201 1214T492 1343Q642 1343 745 1248T889 1011T931 714Q931 397 792 182T418 -33Q308 -33 224 15T140 122Q140 178 198 178Q247
178 282 111Q330 17 445 17Q603 17 682 157T761 578Q761 601 759 632ZM764 898Q764 995 737 1090T646 1241T503 1296Q378 1296 316 1197T253 897Q253 771 277 701T363 583T503 536Q607 536 685 614T764 898Z" />
<glyph unicode=":" glyph-name="colon" horiz-adv-x="512" d="M151 768Q151 811 181 843T258 876Q303 876 334 845T366 768Q366 724 334 693T258 661Q213 661 182 693T151 768ZM151 75Q151 119 182 150T258 182Q303 182 334 151T366 75Q366 30 334 -1T258 -33Q213
-33 182 -1T151 75Z" />
<glyph unicode=";" glyph-name="semicolon" horiz-adv-x="512" d="M147 768Q147 813 178 844T255 876Q299 876 330 845T362 768Q362 724 331 693T255 661Q209 661 178 693T147 768ZM111 -390V-340Q217 -309 276 -232T335 -76Q335 -10 293 -10Q285 -10 267 -15Q252
-20 239 -20Q194 -20 164 6T134 76Q134 122 163 152T238 182Q309 182 353 117T398 -37Q398 -164 321 -260T111 -390Z" />
<glyph unicode="&lt;" glyph-name="less" horiz-adv-x="1365" d="M1222 151L144 608V705L1222 1159V1042L288 656L1222 269V151Z" />
<glyph unicode="=" glyph-name="equal" horiz-adv-x="1365" d="M144 942H1222V834H144V942ZM144 476H1222V368H144V476Z" />
<glyph unicode="&gt;" glyph-name="greater" horiz-adv-x="1365" d="M144 1159L1222 703V606L144 151V268L1078 654L144 1041V1159Z" />
<glyph unicode="?" glyph-name="question" horiz-adv-x="811" d="M291 379H246V799H291Q332 723 399 723Q477 723 515 799T554 1028Q554 1170 492 1234T350 1299Q253 1299 207 1201Q184 1150 143 1150Q95 1150 95 1200Q95 1255 174 1299T357 1343Q523 1343 615
1234T708 970Q708 837 630 751T438 664Q350 664 291 720V379ZM162 75Q162 119 193 150T269 182Q314 182 345 151T377 75Q377 30 346 -1T269 -33Q224 -33 193 -1T162 75Z" />
<glyph unicode="@" glyph-name="at" horiz-adv-x="1877" d="M1408 958L1291 559Q1198 241 1198 181Q1198 151 1218 127T1274 103Q1355 103 1457 183T1628 424T1697 756Q1697 1022 1517 1196T1049 1371Q810 1371 619 1247T309 900T191 414Q191 64 411 -158T968
-381Q1169 -381 1337 -304T1610 -100T1778 172H1836Q1751 -101 1509 -271T972 -442Q595 -442 346 -190T97 440Q97 856 373 1139T1054 1422Q1369 1422 1563 1228T1757 735Q1757 456 1599 244T1207 31Q1130 31 1091 66T1052 170Q1052 228 1070 315Q840 30 676 30Q592
30 544 102T495 265Q495 393 573 557T791 842T1048 964Q1117 964 1159 930T1218 826L1251 936L1408 958ZM1057 917Q926 917 790 681T653 296Q653 239 684 195T769 151Q864 151 976 272T1135 541T1182 770Q1182 832 1149 874T1057 917Z" />
<glyph unicode="A" glyph-name="A" horiz-adv-x="1387" d="M884 500H369L334 414Q256 227 256 170Q256 109 297 78T404 46V0H1V46Q91 60 135 109T241 318Q246 333 289 434L683 1375H722L1175 298L1237 156Q1258 108 1293 81T1400 46V0H867V46Q965 46 999 60T1034
118Q1034 140 988 249L884 500ZM867 545L627 1123L388 545H867Z" />
<glyph unicode="B" glyph-name="B" horiz-adv-x="1259" d="M713 730Q944 713 1056 615T1168 370Q1168 242 1092 150T898 29T580 0H48V46H100Q187 46 220 68T263 136T272 353V1013Q272 1178 263 1226T223 1292T89 1310H63V1356L286 1362L540 1370Q1096 1370 1096
1050Q1096 918 1001 838T713 730ZM468 749Q493 748 510 748Q726 748 805 816T884 1036Q884 1142 853 1200T760 1289T548 1321Q509 1321 468 1318V749ZM468 700V398Q468 205 475 153T512 74T633 47Q793 47 873 129T953 375Q953 543 863 622T544 702Q508 702 468
700Z" />
<glyph unicode="C" glyph-name="C" horiz-adv-x="1472" d="M1294 509H1337V34H1294Q1276 115 1229 177Q1050 -25 772 -25Q478 -25 292 161T105 653Q105 854 191 1031T431 1295T769 1381Q921 1381 1044 1319T1229 1180Q1272 1265 1281 1356H1325L1337 842H1294Q1249
1116 1111 1223T798 1330Q585 1330 460 1157T334 662Q334 357 471 195T812 32Q921 32 1035 85T1215 264T1294 509Z" />
<glyph unicode="D" glyph-name="D" horiz-adv-x="1557" d="M48 1345L271 1356Q550 1370 647 1370Q949 1370 1118 1278T1369 1029T1452 665Q1452 516 1407 393T1284 188T1102 64T905 11T643 0H42V46H98Q185 46 218 68T261 136T271 353V1007Q271 1169 262 1216T222
1281T88 1299H48V1345ZM466 1317V411Q466 210 473 152T518 71T677 47Q854 47 968 95T1158 286T1235 650Q1235 822 1191 957T1063 1176T879 1291T620 1322Q544 1322 466 1317Z" />
<glyph unicode="E" glyph-name="E" horiz-adv-x="1280" d="M1169 422H1217L1188 0H65V46H93Q194 46 223 73T261 141T269 353V1018Q269 1173 261 1222T222 1290T93 1310V1356H1062L1094 1018H1047Q1015 1160 969 1219T858 1294T652 1310H464V741H608Q707 741 746
758T798 809T811 944H858V480H811Q811 593 792 631T737 681T613 693H464V372Q464 131 495 89T662 46H763Q870 46 939 73T1070 186T1169 422Z" />
<glyph unicode="F" glyph-name="F" horiz-adv-x="1131" d="M1111 1356L1122 1018H1075Q1061 1129 1013 1201T911 1292T732 1310H467V735H594Q717 735 757 776T798 943H848V465H798Q798 552 781 602T729 671T594 690H467V353Q467 193 475 144T515 70T641 46H687V0H57V46H99Q186
46 219 68T262 136T272 353V1018Q272 1180 263 1227T223 1292T89 1310H65V1356H1111Z" />
<glyph unicode="G" glyph-name="G" horiz-adv-x="1579" d="M945 579H1530V531Q1433 531 1399 512T1353 447T1342 226V82Q1318 86 1299 86Q1222 86 1097 39Q927 -25 782 -25Q491 -25 298 166T105 652Q105 943 289 1162T789 1381Q1061 1381 1239 1181Q1272 1251
1281 1332H1329V879H1281Q1252 1088 1123 1210T808 1332Q617 1332 475 1190T333 686Q333 325 470 175T810 24Q914 24 999 66T1115 170T1146 324Q1146 433 1132 469T1087 518T977 531H945V579Z" />
<glyph unicode="H" glyph-name="H" horiz-adv-x="1643" d="M1175 680H467V353Q467 193 475 144T515 70T639 46H674V0H64V46H99Q186 46 219 68T262 136T272 353V1018Q272 1180 263 1227T223 1292T89 1310H64V1356H674V1310H649Q550 1310 519 1294T478 1232T467
1018V749H1175V1018Q1175 1180 1166 1227T1127 1292T993 1310H957V1356H1574V1310H1554Q1454 1310 1423 1294T1382 1232T1371 1018V353Q1371 193 1378 144T1419 70T1543 46H1574V0H957V46H1004Q1090 46 1123 68T1166 136T1175 353V680Z" />
<glyph unicode="I" glyph-name="I" horiz-adv-x="725" d="M53 1310V1356H673V1310H644Q544 1310 513 1294T472 1232T461 1018V353Q461 193 468 144T508 70T633 46H673V0H53V46H93Q180 46 213 68T256 136T265 353V1018Q265 1180 256 1227T216 1292T82 1310H53Z" />
<glyph unicode="J" glyph-name="J" horiz-adv-x="725" d="M73 1356H703V1310H669Q569 1310 538 1294T497 1232T487 1018V132Q487 -40 474 -130T398 -305T233 -437T-8 -483Q-162 -483 -245 -427T-328 -292Q-328 -245 -299 -213T-226 -181Q-182 -181 -153 -210T-123
-281Q-123 -306 -135 -333Q-146 -357 -146 -369Q-146 -401 -108 -419T-14 -437Q100 -437 178 -365T272 -194T288 132V1018Q288 1180 279 1227T239 1292T105 1310H73V1356Z" />
<glyph unicode="K" glyph-name="K" horiz-adv-x="1600" d="M468 666L882 1039Q1026 1168 1026 1223Q1026 1306 882 1310V1356H1393V1310Q1330 1309 1267 1283T1150 1215T953 1038L706 810L1214 297Q1388 120 1447 83T1600 46V0H896V46H923Q1037 46 1065 65T1093
112Q1093 154 948 299L565 685L468 600V353Q468 193 476 144T516 70T641 46H667V0H58V46H100Q187 46 220 68T263 136T273 353V1018Q273 1186 263 1232T221 1294T76 1310V1356H676V1310H651Q551 1310 520 1294T479 1232T468 1018V666Z" />
<glyph unicode="L" glyph-name="L" horiz-adv-x="1237" d="M1220 399L1210 0H58V46H98Q185 46 218 68T261 136T271 353V1018Q271 1180 262 1227T222 1292T88 1310H58V1356H709V1310H649Q549 1310 518 1294T477 1232T466 1018V308Q466 161 474 124T517 67T670 46H773Q898
46 958 68T1073 164T1173 399H1220Z" />
<glyph unicode="M" glyph-name="M" horiz-adv-x="1899" d="M950 234L1444 1356H1860V1310H1810Q1710 1310 1679 1294T1638 1232T1627 1018V353Q1627 193 1635 144T1675 70T1800 46H1860V0H1212V46H1260Q1346 46 1379 68T1422 136T1432 353V1216L895 0H848L307
1216V422Q307 259 317 200T379 97T525 46V0H40V46Q127 51 181 93T248 198T260 428V1018Q260 1180 251 1227T211 1292T77 1310H40V1356H453L950 234Z" />
<glyph unicode="N" glyph-name="N" horiz-adv-x="1536" d="M1261 -31L302 1240V299Q302 182 313 145T379 77T541 46V0H35V46Q132 53 183 81T243 143T253 299V1018Q253 1174 239 1227T193 1295T52 1310V1356H452L1255 295V1106Q1255 1196 1237 1232T1161 1289T1024
1310V1356H1516V1310Q1430 1303 1381 1277T1318 1215T1304 1091V-31H1261Z" />
<glyph unicode="O" glyph-name="O" horiz-adv-x="1685" d="M105 687Q105 1001 315 1191T839 1381Q1156 1381 1368 1193T1581 680Q1581 365 1378 170T842 -25Q519 -25 312 170T105 687ZM334 680Q334 353 464 189T856 25Q1085 25 1218 189T1351 678Q1351 994 1220
1162T840 1331Q595 1331 465 1167T334 680Z" />
<glyph unicode="P" glyph-name="P" horiz-adv-x="1152" d="M471 638V353Q471 193 478 144T519 70T643 46H688V0H67V46H103Q190 46 223 68T266 136T275 353V1018Q275 1180 266 1227T226 1292T92 1310H67V1356L237 1362Q441 1369 555 1369Q765 1369 878 1336T1064
1219T1137 1007Q1137 896 1088 811T946 682T620 638H471ZM471 688H568Q685 688 757 711T877 810T925 995Q925 1163 843 1241T575 1320Q507 1320 471 1316V688Z" />
<glyph unicode="Q" glyph-name="Q" horiz-adv-x="1685" d="M946 -20Q899 -25 845 -25Q518 -25 312 169T105 687Q105 1000 314 1190T839 1381Q1033 1381 1214 1297T1488 1047T1581 680Q1581 446 1460 266T1108 14L809 -151Q840 -148 863 -148Q1085 -148 1374 -248Q1596
-325 1726 -325Q1906 -325 1940 -189H1982Q1965 -327 1867 -413T1614 -499Q1512 -499 1429 -466T1211 -348Q971 -195 811 -195Q715 -195 625 -271Q565 -321 542 -321Q506 -321 506 -288Q506 -263 549 -237T711 -152Q736 -140 761 -126L946 -20ZM334 680Q334 353
464 189T856 25Q1085 25 1218 189T1351 678Q1351 994 1220 1162T840 1331Q595 1331 465 1167T334 680Z" />
<glyph unicode="R" glyph-name="R" horiz-adv-x="1493" d="M1489 0H1124Q1027 68 827 356Q763 448 694 532T599 635T518 654H464V353Q464 193 471 144T511 70T636 46H701V0H52V46H96Q183 46 216 68T259 136T268 353V1018Q268 1180 259 1227T219 1292T85 1310H62V1356L256
1366Q450 1375 564 1375Q758 1375 879 1339T1076 1221T1151 1025Q1151 892 1053 798T765 681Q850 640 1039 385Q1193 178 1281 114T1489 46V0ZM464 700Q539 702 619 706T758 728T853 780T911 871T932 1009Q932 1152 861 1238T549 1324Q512 1324 464 1320V700Z"
/>
<glyph unicode="S" glyph-name="S" horiz-adv-x="1109" d="M118 14V450H168Q253 24 571 24Q714 24 792 105T871 288Q871 390 802 459Q733 527 550 605Q387 675 304 727T175 864T128 1043Q128 1188 228 1284T483 1381Q569 1381 645 1353T801 1237Q847 1292 853
1356H897V1001H853Q815 1156 719 1245T495 1334Q374 1334 318 1269T261 1125Q261 1031 332 966Q402 900 585 818Q760 740 839 693T967 561T1015 367Q1015 193 899 84T589 -25Q366 -25 217 146Q184 99 168 14H118Z" />
<glyph unicode="T" glyph-name="T" horiz-adv-x="1429" d="M98 1030H52L59 1356H1375L1382 1030H1339Q1316 1164 1276 1223T1190 1296T1033 1310H815V353Q815 194 822 144T863 70T987 46H1053V0H377V46H447Q534 46 567 68T610 136T620 353V1310H419Q288 1310 243
1298T159 1222T98 1030Z" />
<glyph unicode="U" glyph-name="U" horiz-adv-x="1579" d="M1082 1356H1535V1310Q1445 1304 1401 1270T1346 1192T1336 1025V574Q1336 401 1323 317T1245 152T1063 23T793 -25Q612 -25 487 36T308 195T254 457L255 596V1018Q255 1180 246 1227T206 1292T72 1310H41V1356H660V1310H633Q533
1310 502 1294T461 1232T450 1018V591Q450 369 470 276T586 114T839 44Q963 44 1064 90T1215 206T1276 349T1287 581V1043Q1287 1158 1274 1204T1218 1277T1082 1310V1356Z" />
<glyph unicode="V" glyph-name="V" horiz-adv-x="1493" d="M798 -32H736L268 1046Q255 1075 227 1146Q188 1242 145 1275T6 1310V1356H590V1310Q481 1310 444 1294T406 1233Q406 1204 453 1097L843 197L1156 946Q1235 1134 1235 1191Q1235 1306 1072 1310V1356H1486V1310Q1423
1308 1375 1265T1292 1139L1201 926L798 -32Z" />
<glyph unicode="W" glyph-name="W" horiz-adv-x="1941" d="M1413 -33H1368L955 1085L594 -33H546L219 1023Q175 1167 156 1214T105 1284T0 1310V1356H509V1310Q417 1304 391 1284T365 1226Q365 1193 407 1057L649 267L1003 1356H1059L1457 267L1664 987Q1705 1133
1705 1178Q1705 1310 1564 1310V1356H1934V1310Q1852 1304 1812 1250T1711 988L1413 -33Z" />
<glyph unicode="X" glyph-name="X" horiz-adv-x="1579" d="M849 752L1200 325Q1388 97 1439 72T1572 46V0H900V46Q1001 46 1041 64T1082 126Q1082 152 1064 182T968 307L726 605L513 347Q438 256 415 219T392 149Q392 47 548 46V0H23V46Q108 51 176 83T303 174T468
368L695 641L338 1070L223 1208Q189 1252 144 1281T23 1310V1356H601V1310H582Q468 1310 468 1248Q468 1223 485 1195T567 1091L816 789L1041 1071Q1113 1160 1128 1184T1144 1234Q1144 1276 1104 1293T968 1310V1356H1477V1310Q1347 1310 1259 1234T1063 1022L849
752Z" />
<glyph unicode="Y" glyph-name="Y" horiz-adv-x="1387" d="M771 593L1038 1042Q1104 1152 1104 1198Q1104 1240 1069 1275T944 1310V1356H1387V1310Q1295 1297 1239 1242T1094 1040L790 533V353Q790 180 800 133T845 66T981 46V0H403V46H425Q512 46 545 68T588
136T597 353V520L259 1075Q156 1243 122 1275T0 1310V1356H550V1310Q396 1310 396 1240Q396 1212 447 1128L771 593Z" />
<glyph unicode="Z" glyph-name="Z" horiz-adv-x="1301" d="M62 0V35L937 1310H515Q379 1310 338 1299T242 1220T160 1044H116L160 1356H1168V1310L302 46H716Q927 46 984 79T1087 193T1158 351H1204L1158 0H62Z" />
<glyph unicode="[" glyph-name="bracketleft" horiz-adv-x="704" d="M743 -478H267V1356H743V1310H511Q451 1310 428 1295T400 1251T394 1118V-239Q394 -340 399 -369T426 -415T511 -432H743V-478Z" />
<glyph unicode="\" glyph-name="backslash" horiz-adv-x="1067" d="M256 1343L938 -33H817L135 1343H256Z" />
<glyph unicode="]" glyph-name="bracketright" horiz-adv-x="704" d="M-41 -478V-432H191Q251 -432 274 -416T302 -372T308 -239V1118Q308 1218 303 1247T276 1293T191 1310H-41V1356H435V-478H-41Z" />
<glyph unicode="^" glyph-name="asciicircum" horiz-adv-x="960" d="M510 1375L935 658H789L481 1178L174 658H25L456 1375H510Z" />
<glyph unicode="_" glyph-name="underscore" horiz-adv-x="1024" d="M-12 -154H1036V-256H-12V-154Z" />
<glyph unicode="`" glyph-name="grave" horiz-adv-x="683" d="M480 1002L328 1128Q218 1219 194 1246T170 1300Q170 1356 231 1356Q264 1356 290 1332T363 1235L513 1002H480Z" />
<glyph unicode="a" glyph-name="a" horiz-adv-x="960" d="M902 150H939Q930 -21 771 -21Q703 -21 664 15T612 122Q512 51 430 15T282 -21Q199 -21 139 27T79 154Q79 257 179 334T457 484L612 547V587Q612 672 601 710T544 778T423 808Q273 808 256 708Q240 606
172 606Q111 606 111 664Q111 721 192 786T444 852Q571 852 641 812T733 721T756 565V234Q756 118 768 85Q780 52 820 52Q886 52 902 150ZM612 500L503 456Q245 351 245 192Q245 129 278 91T364 52Q411 52 473 83T612 176V500Z" />
<glyph unicode="b" glyph-name="b" horiz-adv-x="1067" d="M197 -33H158V1063Q158 1183 152 1218T119 1270T26 1287V1333Q85 1333 168 1347T281 1375H302V727Q372 790 444 821T590 852Q767 852 880 729T993 415Q993 223 877 95T576 -33Q485 -33 417 5T302 118Q237
53 197 -33ZM302 668V347Q302 223 318 169T398 64T545 14Q674 14 750 120T827 425Q827 608 756 703T565 799Q497 799 432 767T302 668Z" />
<glyph unicode="c" glyph-name="c" horiz-adv-x="875" d="M783 200H827Q759 -33 487 -33Q312 -33 193 86T73 401Q73 602 202 727T507 852Q613 852 702 806T791 692Q791 667 775 645T727 623Q661 623 646 700Q634 758 609 781Q583 804 508 804Q374 804 307 711T239
431Q239 238 311 129T531 20Q729 20 783 200Z" />
<glyph unicode="d" glyph-name="d" horiz-adv-x="1067" d="M769 732V1052Q769 1183 766 1217T737 1269T648 1287H627V1333Q748 1336 892 1375H913V274Q913 131 918 100T949 54T1048 39V-7Q903 -10 790 -33Q778 14 778 115Q704 41 626 4T463 -33Q304 -33 189 95T73
405Q73 605 191 728T472 852Q555 852 629 822T769 732ZM769 674Q703 731 637 759T503 788Q390 788 315 701T239 417Q239 217 316 122T508 27Q584 27 649 63T769 171V674Z" />
<glyph unicode="e" glyph-name="e" horiz-adv-x="896" d="M818 542H247Q243 483 243 454Q243 238 310 130T512 21Q694 21 770 184H818Q786 82 691 25T484 -33Q380 -33 288 19T136 168T77 401Q77 595 191 723T476 852Q637 852 725 754T818 542ZM643 582Q646 605
646 623Q646 711 595 759T468 808Q286 808 251 582H643Z" />
<glyph unicode="f" glyph-name="f" horiz-adv-x="555" d="M498 819V773H327V281Q327 150 330 116T359 64T448 46H491V0H48V46Q117 46 143 60T176 102T183 281V773H30V819H183V893Q183 1017 193 1085T249 1225T366 1337T534 1376Q652 1376 723 1327T794 1227Q794
1198 774 1179T727 1160Q674 1160 630 1242Q581 1332 503 1332Q440 1332 393 1287T336 1173T327 881V819H498Z" />
<glyph unicode="g" glyph-name="g" horiz-adv-x="960" d="M702 747Q787 843 874 843Q922 843 948 817T975 760Q975 694 915 694Q882 694 858 735Q836 773 812 773Q774 773 728 721Q780 639 780 547Q780 427 694 335Q608 242 404 235Q192 228 192 149Q192 112 240
97Q287 81 438 73Q603 65 692 43T834 -48T887 -210Q887 -342 779 -423T468 -504Q282 -504 170 -432T58 -250Q58 -189 90 -150T181 -111Q197 -111 210 -116Q148 -184 148 -260Q148 -348 230 -405T477 -463Q623 -463 704 -405T786 -255Q786 -155 713 -114Q640 -74
453 -66Q238 -57 174 -13Q110 30 110 98Q110 229 293 263Q198 319 150 391T102 552Q102 677 200 764T434 852Q601 852 702 747ZM252 529Q252 400 305 340T440 280Q516 280 570 339T625 546Q625 694 567 750T436 806Q344 806 298 737T252 529Z" />
<glyph unicode="h" glyph-name="h" horiz-adv-x="1088" d="M334 684Q394 768 468 810T632 852Q733 852 799 810T886 707T906 507V281Q906 137 911 106T944 61T1044 46V0H621V46H640Q713 46 734 67T759 116T763 281V527Q763 629 751 678T695 759T583 791Q505 791
443 746T334 609V281Q334 143 338 111T369 63T464 46V0H48V46H69Q141 46 162 66T187 115T191 281V1097Q191 1221 168 1254T55 1287V1333Q210 1333 313 1375H334V684Z" />
<glyph unicode="i" glyph-name="i" horiz-adv-x="512" d="M137 1270Q137 1313 167 1344T241 1375Q284 1375 314 1344T344 1270Q344 1226 314 1195T241 1164Q198 1164 168 1195T137 1270ZM330 852V281Q330 150 334 116T363 64T452 46H473V0H32V46H66Q137 46 158
66T183 115T187 281V529Q187 673 174 705T138 745T59 753H32V799Q210 817 308 852H330Z" />
<glyph unicode="j" glyph-name="j" horiz-adv-x="512" d="M148 1270Q148 1313 178 1344T252 1375Q295 1375 325 1344T355 1270Q355 1226 325 1195T252 1164Q207 1164 178 1196T148 1270ZM345 852V-28Q345 -159 335 -229T282 -363T164 -465T-9 -504Q-100 -504 -162
-469T-224 -380Q-224 -348 -205 -331T-161 -314Q-116 -314 -87 -378Q-52 -460 20 -460Q83 -460 131 -419T191 -312T202 -102V530Q202 651 193 689T162 740T75 753H50V799Q226 817 323 852H345Z" />
<glyph unicode="k" glyph-name="k" horiz-adv-x="939" d="M541 819H871V773Q780 771 627 637Q578 595 475 514L767 172Q833 95 871 72T949 46V0H541V46Q643 48 643 90Q643 109 576 187L366 431L323 399V281Q323 150 326 117T355 65T442 46V0H27V46H58Q130 46 151
66T176 115T179 281V1102Q179 1221 157 1254T48 1287V1333Q107 1333 189 1347T302 1375H323V454L409 514Q618 662 618 727Q618 771 541 773V819Z" />
<glyph unicode="l" glyph-name="l" horiz-adv-x="491" d="M314 1375V281Q314 150 317 116T346 64T435 46H459V0H21V46H49Q109 46 134 62T165 109T170 281V1091Q170 1220 147 1253T35 1287V1333Q96 1333 178 1347T292 1375H314Z" />
<glyph unicode="m" glyph-name="m" horiz-adv-x="1643" d="M287 852H297Q326 785 326 680Q393 766 470 809T637 852Q738 852 801 806T889 668Q965 760 1045 806T1208 852Q1303 852 1369 808T1449 708T1463 527V281Q1463 138 1468 107T1500 61T1599 46V0H1190V46Q1255
46 1281 60T1314 104T1320 281V554Q1320 637 1311 679T1261 751T1157 781Q1092 781 1027 737T895 604V281Q895 150 898 117T926 65T1014 46V0H618V46Q685 46 711 60T744 103T751 281V508Q751 616 743 664T691 747T584 782Q522 782 458 742T326 622V281Q326 146
330 113T360 63T453 46V0H52V46Q118 46 144 60T177 104T183 281V526Q183 666 179 697T148 745T52 761V807Q194 821 287 852Z" />
<glyph unicode="n" glyph-name="n" horiz-adv-x="1088" d="M282 852H309Q332 790 335 683Q407 768 486 810T651 852Q749 852 811 811T892 711T910 537V281Q910 139 915 108T946 62T1044 46V0H625V46H644Q716 46 738 67T763 116T766 281V545Q766 642 757 683T706
757T600 789Q527 789 461 746T335 615V281Q335 139 340 108T372 62T471 46V0H57V46Q126 46 153 60T186 102T193 281V525Q193 668 188 698T156 744T57 760V806Q167 818 282 852Z" />
<glyph unicode="o" glyph-name="o" horiz-adv-x="1024" d="M76 411Q76 599 202 725T512 852Q697 852 823 725T949 411Q949 204 821 86T512 -33Q331 -33 204 87T76 411ZM242 406Q242 188 313 101T512 13Q643 13 712 100T782 406Q782 622 713 714T512 806Q381 806
312 715T242 406Z" />
<glyph unicode="p" glyph-name="p" horiz-adv-x="1067" d="M253 852H280Q297 796 297 717Q361 785 434 818T590 852Q760 852 873 733T986 417Q986 225 873 96T574 -33Q498 -33 429 -3T297 88V-223Q297 -365 302 -396T334 -442T431 -458V-504H3V-458H33Q104 -458
125 -438T150 -389T154 -223V521Q154 652 151 686T122 738T33 756H3V802Q102 812 253 852ZM297 154Q351 88 411 55T539 21Q652 21 736 118T820 427Q820 611 739 702T546 793Q477 793 415 758T297 652V154Z" />
<glyph unicode="q" glyph-name="q" horiz-adv-x="1067" d="M875 852H908V-223Q908 -354 911 -388T940 -440T1029 -458H1051V-504H610V-458H643Q703 -458 728 -442T759 -396T764 -223V70Q692 19 619 -7T469 -33Q298 -33 185 84T71 396Q71 601 197 726T483 852Q550
852 620 826T764 745Q819 781 875 852ZM764 683Q705 737 643 764T515 791Q401 791 319 702T237 387Q237 204 307 112T503 19Q570 19 635 43T764 117V683Z" />
<glyph unicode="r" glyph-name="r" horiz-adv-x="747" d="M341 643Q375 732 451 792T601 852Q667 852 705 811T743 727Q743 698 724 677T676 656Q626 656 600 730Q582 780 546 780Q503 780 443 722T366 600T349 427V281Q349 150 352 116T381 64T470 46H498V0H63V46H84Q144
46 169 62T200 109T205 281V512Q205 644 202 677T173 729T84 748H63V793Q157 804 309 852Q338 773 341 643Z" />
<glyph unicode="s" glyph-name="s" horiz-adv-x="683" d="M83 -26V243H122Q190 10 365 10Q441 10 478 56T516 157Q516 221 476 262Q435 303 317 361Q193 422 139 481Q85 539 85 624Q85 705 143 778T306 852Q413 852 483 765Q498 780 522 838H559V585H522Q502 676
445 741T309 807Q249 807 212 770T175 684Q175 630 216 591Q256 551 369 500Q539 423 577 350Q615 276 615 208Q615 101 545 34T367 -33Q254 -33 166 60Q139 30 122 -26H83Z" />
<glyph unicode="t" glyph-name="t" horiz-adv-x="597" d="M562 773H315V278Q315 164 325 125T367 61T437 37Q509 37 562 119L594 100Q563 34 503 1T380 -33Q308 -33 254 9T186 109T172 309V773H53V819Q135 821 200 888T283 1076H315V819H562V773Z" />
<glyph unicode="u" glyph-name="u" horiz-adv-x="1067" d="M890 819V282Q890 148 894 114T923 63T1015 46V0Q863 -2 793 -32H781Q749 23 747 158Q686 63 608 15T434 -33Q352 -33 289 4T203 96T179 259V538Q179 680 174 711T143 758T45 773V819H323V251Q323 167
333 129T384 63T479 34Q556 34 626 84T721 191T747 353V538Q747 672 744 701T719 751T625 773H604V819H890Z" />
<glyph unicode="v" glyph-name="v" horiz-adv-x="939" d="M497 -33H439L148 624Q105 719 80 745T-2 773V819H368V773Q307 773 285 763T262 725Q262 703 302 618L523 121L722 564Q769 670 769 702Q769 769 669 773V819H945V773Q894 770 860 731T763 553L497 -33Z" />
<glyph unicode="w" glyph-name="w" horiz-adv-x="1387" d="M983 -32H938L694 618L445 -32H401L151 618Q108 729 87 751T3 773V819H377V773Q314 773 291 762T268 722Q268 702 307 605L473 166L727 819H766L1012 166L1192 631Q1221 705 1221 720Q1221 769 1120 773V819H1386V773Q1338
772 1311 755T1260 676L1238 618L983 -32Z" />
<glyph unicode="x" glyph-name="x" horiz-adv-x="981" d="M549 465L779 176Q839 101 878 75T973 46V0H564V46Q665 46 665 85Q665 101 619 154L457 355L307 177Q252 113 252 97Q252 47 363 46V0H26V46Q70 46 123 69T260 191L429 391L248 620Q171 718 131 745T37
773V819H423V773Q340 773 340 736Q340 719 377 675L521 497L654 653Q699 707 699 720Q699 773 589 773V819H914V773Q816 770 711 650L549 465Z" />
<glyph unicode="y" glyph-name="y" horiz-adv-x="939" d="M531 155L721 610Q762 710 762 721Q762 771 651 773V819H939V773Q872 770 841 738T764 594L399 -287Q347 -413 307 -458T219 -504Q154 -504 154 -445Q154 -377 258 -330Q319 -303 339 -284T380 -215L458
-20L150 640Q109 727 82 750T-10 773V819H366V773Q267 770 267 732Q267 717 306 634L531 155Z" />
<glyph unicode="z" glyph-name="z" horiz-adv-x="875" d="M53 0V31L596 773H298Q241 773 221 766T172 718T114 592H77L90 819H776V783L236 46H460Q569 46 606 58T679 117T751 261H791L767 0H53Z" />
<glyph unicode="{" glyph-name="braceleft" horiz-adv-x="981" d="M210 422V461Q311 478 374 537T437 673Q437 725 413 826Q390 919 390 988Q390 1137 499 1249T768 1381V1343Q651 1325 593 1255T535 1102Q535 1040 554 951Q575 845 575 780Q575 660 493 574T292
444Q424 394 500 303T576 103Q576 42 554 -65Q536 -155 536 -215Q536 -405 768 -463V-498Q608 -480 500 -366T392 -107Q392 -39 413 51Q438 156 438 205Q438 277 382 339T210 422Z" />
<glyph unicode="|" glyph-name="bar" horiz-adv-x="1045" d="M468 1375H577V-504H468V1375Z" />
<glyph unicode="}" glyph-name="braceright" horiz-adv-x="981" d="M771 461V422Q672 406 608 346T544 210Q544 158 568 57Q591 -36 591 -105Q591 -254 481 -366T213 -498V-460Q330 -442 387 -372T445 -219Q445 -157 427 -68Q406 38 406 103Q406 222 488 309T689
439Q558 488 482 579T405 780Q405 841 427 948Q445 1038 445 1098Q445 1289 213 1346V1381Q373 1362 481 1248T589 990Q589 922 568 832Q543 727 543 679Q543 606 599 544T771 461Z" />
<glyph unicode="~" glyph-name="asciitilde" horiz-adv-x="1365" d="M1171 798H1219Q1216 666 1145 588T969 510Q917 510 860 528T595 631Q442 694 376 694Q229 694 194 512H147Q152 658 225 729T387 800Q483 800 768 678Q920 613 987 613Q1072 613 1117 665T1171 798Z" />
<glyph unicode="" glyph-name="uni007F.controlDEL" horiz-adv-x="0" />
</font>
</defs>
</svg>
